<?xml version="1.0" encoding="UTF-8" standalone="no"?>
<!-- Created with Inkscape (http://www.inkscape.org/) -->

<svg
   xmlns:dc="http://purl.org/dc/elements/1.1/"
   xmlns:cc="http://creativecommons.org/ns#"
   xmlns:rdf="http://www.w3.org/1999/02/22-rdf-syntax-ns#"
   xmlns:svg="http://www.w3.org/2000/svg"
   xmlns="http://www.w3.org/2000/svg"
   xmlns:sodipodi="http://sodipodi.sourceforge.net/DTD/sodipodi-0.dtd"
   xmlns:inkscape="http://www.inkscape.org/namespaces/inkscape"
   width="210mm"
   height="297mm"
   viewBox="0 0 210 297"
   version="1.1"
   id="svg8"
   inkscape:version="0.92.2 (5c3e80d, 2017-08-06)"
   sodipodi:docname="logo.svg">
  <defs
     id="defs2" />
  <sodipodi:namedview
     id="base"
     pagecolor="#ffffff"
     bordercolor="#666666"
     borderopacity="1.0"
     inkscape:pageopacity="0.0"
     inkscape:pageshadow="2"
     inkscape:zoom="0.39108446"
     inkscape:cx="-446.82301"
     inkscape:cy="343.56282"
     inkscape:document-units="mm"
     inkscape:current-layer="layer1"
     showgrid="false"
     inkscape:window-width="1920"
     inkscape:window-height="1028"
     inkscape:window-x="1672"
     inkscape:window-y="22"
     inkscape:window-maximized="1" />
  <metadata
     id="metadata5">
    <rdf:RDF>
      <cc:Work
         rdf:about="">
        <dc:format>image/svg+xml</dc:format>
        <dc:type
           rdf:resource="http://purl.org/dc/dcmitype/StillImage" />
        <dc:title />
      </cc:Work>
    </rdf:RDF>
  </metadata>
  <g
     inkscape:label="Layer 1"
     inkscape:groupmode="layer"
     id="layer1">
    <path
       sodipodi:type="star"
       style="opacity:1;vector-effect:none;fill:#bbdefb;fill-opacity:1;stroke:#1976d2;stroke-width:9;stroke-linecap:butt;stroke-linejoin:round;stroke-miterlimit:4;stroke-dasharray:none;stroke-dashoffset:0;stroke-opacity:1"
       id="path4576-2"
       sodipodi:sides="6"
       sodipodi:cx="105"
       sodipodi:cy="157.37698"
       sodipodi:r1="99.133965"
       sodipodi:r2="85.852539"
       sodipodi:arg1="0"
       sodipodi:arg2="0.52359878"
       inkscape:flatsided="true"
       inkscape:rounded="0"
       inkscape:randomized="0"
       d="m 204.13396,157.37698 -49.56698,85.85254 H 55.433018 L 5.8660355,157.37698 55.433018,71.524452 l 99.133962,0 z"
       inkscape:transform-center-y="-3.0225821e-006" />
    <text
       xml:space="preserve"
       style="font-style:normal;font-variant:normal;font-weight:normal;font-stretch:normal;font-size:27.30360413px;line-height:1.25;font-family:'Segoe Print';-inkscape-font-specification:'Segoe Print';text-align:end;letter-spacing:0px;word-spacing:0px;text-anchor:end;fill:#0d47a1;fill-opacity:1;stroke:none;stroke-width:0.26458332"
       x="103.4544"
       y="232.21574"
       id="text4580-2"
       transform="scale(1.0183689,0.98196243)"><tspan
         sodipodi:role="line"
         id="tspan862"
         style="font-style:normal;font-variant:normal;font-weight:normal;font-stretch:normal;font-size:28.74063301px;font-family:Calibri;-inkscape-font-specification:'Calibri, Bold';font-variant-ligatures:discretionary-ligatures;font-variant-caps:normal;font-variant-numeric:normal;font-feature-settings:normal;text-align:center;letter-spacing:-1.3472172px;writing-mode:lr-tb;text-anchor:middle;fill:#0d47a1;stroke-width:0.26458332"
         x="102.78079"
         y="232.21574">sim<tspan
   style="font-weight:normal;font-size:28.74063301px;letter-spacing:-2.15554738px;fill:#0d47a1;stroke-width:0.26458332"
   id="tspan866">I</tspan>Reff</tspan></text>
    <g
       id="g956"
       style="fill:#0d47a1"
       transform="translate(1e-5,-1.4916702)">
      <path
         inkscape:connector-curvature="0"
         id="path4568-7"
         d="m 98.61435,202.02667 c 0.01609,-3.34526 0.625363,-10.40938 1.44101,-16.70711 0.51712,-3.99281 0.75397,-5.61179 2.70386,-18.48252 1.0355,-6.83509 1.82928,-12.86032 1.99118,-15.11405 l 0.0984,-1.37061 -0.95581,-1.12553 c -0.5257,-0.61903 -1.61361,-1.73655 -2.41755,-2.48333 l -1.46172,-1.35779 -2.173253,0.16539 c -4.48662,0.34145 -7.690362,1.28766 -10.997453,3.24804 -2.460753,1.45867 -5.342465,4.2568 -7.141981,6.93482 -0.68527,1.01981 -0.918363,1.18911 -1.319245,0.95819 -0.182037,-0.10486 -0.147972,-0.27177 0.214137,-1.04921 2.381731,-5.11351 5.921685,-8.67348 10.879777,-10.9413 1.412217,-0.64595 3.965133,-1.44636 5.474009,-1.71628 0.519243,-0.093 0.944073,-0.21417 0.944073,-0.26954 0,-0.14797 -2.772304,-1.52613 -4.035337,-2.00601 -2.709003,-1.02925 -6.405745,-1.58539 -9.634922,-1.44946 -5.025973,0.21155 -9.431938,1.91331 -13.710092,5.2954 -1.27605,1.00877 -1.515284,1.14652 -1.774879,1.02198 -0.165013,-0.0792 -0.300031,-0.1769 -0.300031,-0.21715 0,-0.0403 0.319043,-0.44941 0.708977,-0.90922 1.023045,-1.20631 3.421022,-3.28291 4.844904,-4.19557 1.270416,-0.81429 3.804303,-2.04913 5.057564,-2.46472 0.394631,-0.13086 0.717498,-0.28658 0.717498,-0.34607 0,-0.19723 -1.773801,-2.11284 -2.896916,-3.12852 -2.404293,-2.17432 -2.913858,-2.45516 -5.256579,-2.89723 -3.172672,-0.59868 -6.861122,-0.2185 -9.912499,1.02171 -2.850438,1.15855 -5.668897,3.5357 -7.341012,6.19157 -0.421667,0.66976 -0.747722,0.87805 -0.939348,0.60012 -0.112152,-0.16264 0.539873,-1.61409 1.213642,-2.7016 2.536912,-4.09478 6.743319,-6.70129 11.915614,-7.38354 l 1.359469,-0.17932 -1.453187,-0.42208 c -3.25793,-0.94633 -6.389033,-1.27139 -11.046413,-1.14685 -2.465541,0.0658 -2.832238,0.0492 -2.832238,-0.12923 0,-0.26001 4.264991,-0.91038 6.684075,-1.01924 0.8931,-0.0401 1.623817,-0.11301 1.623817,-0.16181 0,-0.0489 -0.275112,-0.32957 -0.611371,-0.6239 -0.845208,-0.73981 -2.030005,-2.31004 -2.648665,-3.51032 -1.446292,-2.80601 -1.55218,-6.20141 -0.294039,-9.42942 0.437818,-1.12333 0.420251,-1.09851 0.707728,-0.99963 0.187258,0.0645 0.178755,0.2412 -0.0604,1.25567 -0.345829,1.46727 -0.292183,4.63453 0.100281,5.91981 0.81138,2.6572 3.058582,5.4056 5.690766,6.96001 1.037431,0.61264 1.516395,0.81079 2.134394,0.88299 1.943099,0.227 4.682116,1.03531 6.9185,2.04168 3.454723,1.55463 6.804761,4.11301 9.264145,7.07492 l 0.927843,1.1174 0.906311,-0.1019 c 1.516147,-0.17044 5.179106,-0.0875 6.646312,0.15045 1.937582,0.31429 3.962871,0.82191 5.655319,1.41747 2.813909,0.99018 6.325795,3.12212 9.034845,5.48476 0.8524,0.74339 1.58477,1.3203 1.62748,1.28203 0.15358,-0.13769 -0.25144,-5.20176 -0.53329,-6.66768 -0.50552,-2.62923 -1.35022,-4.47605 -2.87924,-6.29497 -2.935569,-3.49217 -7.509086,-5.62036 -12.451955,-5.79429 -3.005901,-0.10576 -5.395274,0.38221 -8.416881,1.71896 -1.19774,0.52986 -1.4995,0.61611 -1.636825,0.4678 -0.240161,-0.25941 -0.127619,-0.36602 1.260174,-1.19376 6.368335,-3.79834 13.8441,-3.64281 20.160397,0.41941 0.62257,0.40041 1.16187,0.70122 1.19842,0.66845 0.0365,-0.0327 -0.25271,-0.62955 -0.64279,-1.32618 -2.018963,-3.60546 -5.126062,-6.75901 -9.279078,-9.41778 -5.587058,-3.57686 -11.909938,-5.84866 -21.978155,-7.89672 -4.681142,-0.95222 -4.664549,-0.94826 -4.51303,-1.08107 0.24689,-0.21641 7.550912,0.54678 11.159342,1.16604 7.923127,1.35971 15.65867,4.49604 20.488288,8.30682 l 0.885665,0.69882 9.19e-4,-1.86979 c 9.19e-4,-2.02853 0.27557,-4.01681 0.753423,-5.45511 0.388855,-1.17043 0.381299,-1.53981 -0.06526,-3.19194 -0.451763,-1.6715 -0.827597,-2.54215 -1.601278,-3.70954 -2.407491,-3.63256 -6.267711,-5.772329 -10.954093,-6.071964 -1.22687,-0.07844 -1.507157,-0.136809 -1.546675,-0.322039 -0.06628,-0.3107 1.187884,-0.442442 3.277795,-0.344302 2.001224,0.09398 3.645844,0.469354 5.310788,1.212165 l 1.293258,0.576987 -0.0019,-1.895639 c -9.19e-4,-1.503163 0.0672,-2.143138 0.330532,-3.091028 0.423827,-1.525824 1.504959,-3.652622 1.804404,-3.549621 0.117664,0.04046 0.239361,0.07358 0.270423,0.07358 0.03107,0 -0.04652,0.258954 -0.17244,0.575464 -0.434317,1.091794 -0.812805,2.745577 -0.90645,3.960536 -0.179859,2.333763 0.67695,5.180721 1.989172,6.609541 0.943935,1.02781 2.101104,2.81626 2.57367,3.9777 l 0.40024,0.98369 0.72751,-0.92862 c 1.64527,-2.10004 3.78953,-3.75654 6.2343,-4.81621 2.22073,-0.96254 5.15768,-1.558373 7.69005,-1.560104 1.06124,-5.11e-4 1.17067,0.02398 1.17067,0.263874 0,0.202 -0.13413,0.28276 -0.56644,0.34105 -0.31155,0.042 -1.39217,0.25119 -2.40137,0.46485 -5.0144,1.06164 -8.72161,3.72699 -11.01079,7.91634 -1.90493,3.48616 -2.377249,7.78574 -1.33315,12.136 0.20216,0.84228 0.39203,1.2003 1.11305,2.09875 2.98213,3.71594 4.52786,7.59234 5.72325,14.35273 0.54325,3.07231 1.06997,8.08626 1.07318,10.21579 5.6e-4,0.43965 0.0605,0.38456 1.02952,-0.9478 1.89167,-2.60099 4.1578,-4.79608 7.17161,-6.94681 2.01327,-1.43674 4.01654,-3.85948 5.75112,-6.95543 0.89369,-1.59507 1.06496,-2.54582 0.95805,-5.31786 -0.12224,-3.16922 -0.83804,-5.284 -2.58519,-7.63776 -1.59781,-2.1526 -4.16799,-3.82888 -6.68036,-4.35698 -1.56781,-0.32956 -4.12399,-0.20587 -5.79511,0.28041 -1.44391,0.42017 -1.4073,0.41494 -1.48269,0.21218 -0.0721,-0.19365 2.18754,-1.13728 3.44637,-1.43927 2.0482,-0.49135 4.82146,-0.26698 6.90389,0.55855 0.91469,0.36262 1.00545,0.38531 0.89386,0.22344 -0.0412,-0.0596 -0.15196,-0.6281 -0.24624,-1.26315 -0.19546,-1.31664 -0.0266,-2.85966 0.44891,-4.09818 0.44166,-1.15066 1.24941,-2.51893 1.48705,-2.51893 0.13728,0 0.18371,0.0858 0.12827,0.23695 -1.07267,2.92589 -1.25351,4.5125 -0.72702,6.37873 0.39533,1.40143 1.10306,2.70306 1.91339,3.51905 2.00265,2.01664 3.44916,4.84881 3.92366,7.68224 0.12087,0.72172 0.25075,1.34001 0.28861,1.37396 0.038,0.0341 0.13504,-0.142 0.21591,-0.39103 0.0809,-0.24901 0.39204,-1.20508 0.69148,-2.12457 1.07334,-3.29589 1.91405,-7.58943 2.74813,-14.03497 0.22167,-1.71285 0.42794,-3.13966 0.45839,-3.17069 0.22301,-0.22712 0.28198,0.64393 0.28196,4.16364 -1e-5,2.20933 -0.0559,4.77524 -0.12411,5.70198 l -0.12409,1.68501 0.69241,-0.82568 c 1.90008,-2.26579 4.82402,-4.22968 7.20931,-4.84221 0.90198,-0.2316 2.24838,-0.96308 3.16477,-1.71929 1.42301,-1.17433 2.51328,-2.91121 3.04272,-4.84732 0.22412,-0.81959 0.40463,-1.22306 0.54719,-1.22306 0.17274,0 0.19453,0.19298 0.11589,1.02687 -0.19309,2.04758 -1.02537,4.00713 -2.29577,5.40525 -0.37002,0.40723 -0.67277,0.76292 -0.67277,0.7904 0,0.0275 0.46259,0.0847 1.02799,0.12723 1.26306,0.0949 2.90775,0.59673 4.1523,1.26693 1.22585,0.66012 3.54673,2.70647 3.31012,2.91857 -0.12496,0.11199 -0.32078,0.0289 -0.74824,-0.31718 -3.55702,-2.88065 -8.11883,-3.43352 -12.33734,-1.49524 l -1.34753,0.61914 1.27201,0.24494 c 2.39806,0.46175 4.68579,1.72201 6.2153,3.42387 0.94337,1.04968 0.72917,1.29401 -0.36287,0.4139 -2.37581,-1.91478 -4.50985,-2.68624 -7.44082,-2.6899 l -1.65198,-0.002 -0.73248,0.73455 c -1.78342,1.78846 -3.25258,4.31659 -4.12507,7.0985 -1.68499,5.37249 -2.31752,7.03056 -3.63379,9.52538 -0.4459,0.8451 -0.72729,1.50473 -0.62533,1.46581 7.00289,-2.67373 11.16232,-3.65115 18.77203,-4.41126 3.92073,-0.39164 5.20412,-0.4728 5.20412,-0.32913 0,0.0688 -1.17255,0.35842 -2.60567,0.6438 -3.49941,0.69682 -7.55846,1.61925 -9.40302,2.13685 l -1.51051,0.42385 1.58603,0.18417 c 3.66459,0.42551 6.66554,1.1154 11.40448,2.62182 4.50253,1.43128 5.09161,1.54262 8.15685,1.54178 3.07288,-8.2e-4 4.2366,-0.2261 6.72183,-1.30116 1.40261,-0.60674 1.74393,-0.82912 2.95118,-1.9226 1.10204,-0.99818 1.48557,-1.4583 1.99002,-2.38742 0.87498,-1.61151 1.1601,-2.90324 1.06541,-4.82667 -0.0577,-1.17345 -0.0312,-1.53727 0.11264,-1.53727 0.55468,0 0.88769,3.98932 0.46693,5.59368 -0.51423,1.96077 -1.97188,3.96735 -3.89569,5.3627 -2.20958,1.60261 -5.00287,2.48287 -8.56888,2.70031 l -1.42237,0.0867 1.34684,0.73168 c 1.80915,0.98279 5.49132,3.21693 7.5786,4.5983 1.73386,1.14746 2.15342,1.70176 0.7428,0.98135 -4.38983,-2.2419 -11.12791,-5.26707 -14.14954,-6.35265 -1.79743,-0.64576 -5.02994,-1.65122 -5.30862,-1.65122 -0.0721,0 0.43374,0.50269 1.1237,1.11708 1.99124,1.77314 3.26042,3.54174 4.20257,5.85619 0.48396,1.18894 0.49623,1.27304 0.50354,3.45278 0.007,1.99094 -0.0309,2.33732 -0.34521,3.18196 -0.65642,1.76395 -1.85936,3.40055 -3.25043,4.42216 -0.82758,0.60778 -2.98106,1.74724 -3.13791,1.66034 -0.26558,-0.14712 -0.11193,-0.31683 0.83557,-0.92289 2.10633,-1.34733 3.73014,-3.47622 4.25041,-5.57245 0.30876,-1.24404 0.23455,-3.56173 -0.15587,-4.86787 -0.39546,-1.32307 -1.64444,-3.43501 -2.76734,-4.67941 -2.65104,-2.93789 -5.85988,-4.64459 -9.66827,-5.14231 -1.88738,-0.24667 -6.96379,-0.0973 -8.71344,0.2564 -4.74758,0.9597 -8.56209,2.97354 -12.39714,6.54504 -3.69676,3.44266 -5.69852,7.34643 -6.62482,12.91943 -0.25822,1.55362 -0.59585,5.8698 -0.46812,5.98431 0.0477,0.0428 0.19358,-0.0589 0.32414,-0.22602 0.54463,-0.69701 2.22495,-2.32207 3.18324,-3.07854 2.24801,-1.77461 3.98557,-2.80754 6.5602,-3.89985 4.39425,-1.86431 8.54698,-2.52108 14.67157,-2.32035 2.81574,0.0923 3.13434,0.12635 3.13434,0.33501 0,0.20357 -0.35951,0.26012 -2.91149,0.45778 -4.83075,0.37418 -8.03545,1.02948 -11.25179,2.30077 -1.83711,0.72613 -3.69634,1.69299 -3.58001,1.86171 0.0484,0.0702 0.31427,0.12758 0.59082,0.12758 0.77249,0 3.03386,0.63286 4.38371,1.22677 4.17004,1.83483 6.5514,5.02006 7.10536,9.50394 0.0866,0.70125 0.0681,0.77857 -0.18656,0.77857 -0.22539,0 -0.32221,-0.17166 -0.47725,-0.84627 -0.50976,-2.21795 -1.80861,-4.28694 -3.68394,-5.86835 -2.48352,-2.09425 -5.27865,-3.03188 -9.05287,-3.03684 l -1.85677,-0.002 -1.66158,1.54434 c -1.87734,1.74486 -2.49242,2.5731 -3.10409,4.17979 -0.96082,2.52399 -1.34668,5.2232 -1.45671,10.19062 -0.15126,6.82704 0.59005,15.1842 2.08787,23.53827 0.25154,1.40293 0.43504,2.56997 0.40778,2.59339 -0.0273,0.0233 -3.15937,0.0874 -6.96023,0.14209 l -6.910686,0.0995 0.0019,-0.32331 z"
         style="fill:#0d47a1;stroke-width:1.00000012" />
      <path
         sodipodi:nodetypes="scccss"
         inkscape:connector-curvature="0"
         id="path4582-3"
         d="m 79.917869,203.0903 c -13.294918,-0.67221 -21.026389,0.37937 -34.297264,4.4411 18.415593,-9.57061 32.650749,-4.4411 55.419495,-6.54063 18.9255,-1.59713 43.61578,-4.52714 63.73116,5.49349 -15.39224,-3.87619 -23.57302,-5.52739 -35.29411,-5.39647 -15.1442,0.16917 -28.34343,3.07524 -49.559281,2.00251 z"
         style="fill:#0d47a1;stroke:none;stroke-width:0.26458332px;stroke-linecap:butt;stroke-linejoin:miter;stroke-opacity:1" />
    </g>
    <path
       style="fill:#bbdefb;stroke-width:1.00000012"
       d="m 139.38568,172.40207 c -2.31676,-0.55921 -3.34336,-1.72629 -2.71131,-3.08229 0.48095,-1.03181 1.97548,-1.36247 3.21502,-0.71131 0.89491,0.4701 1.92401,1.57022 2.55645,2.73282 0.2939,0.54029 0.53436,1.04716 0.53436,1.12638 0,0.21253 -2.64201,0.16431 -3.59452,-0.0656 z m -14.197,-2.04559 c -0.21909,-1.83392 0.22514,-3.56055 1.14301,-4.44261 0.55959,-0.53777 0.62078,-0.56063 1.49986,-0.56063 0.84996,0 0.95587,0.0353 1.45987,0.48714 1.11462,0.99914 0.74978,2.38672 -1.01201,3.84884 -0.80537,0.66838 -2.43292,1.56576 -2.83976,1.56576 -0.0789,0 -0.19193,-0.40433 -0.25097,-0.8985 z m -8.86751,-2.73073 c -1.11616,-2.29884 -1.44971,-4.37 -0.96609,-5.99901 0.12111,-0.40794 0.34792,-0.89638 0.50401,-1.08539 0.70339,-0.85167 2.07106,-1.26796 3.13334,-0.9537 0.71413,0.21128 1.57671,0.89279 1.83714,1.45151 0.46355,0.99451 0.0864,2.61315 -0.98553,4.23068 -0.67726,1.0219 -2.65056,3.00035 -2.99252,3.00035 -0.11961,0 -0.35826,-0.28999 -0.53035,-0.64444 z m 5.7164,-1.01754 c -0.16801,-0.56195 -0.0942,-2.60378 0.12029,-3.32586 0.54999,-1.85199 1.77165,-2.6849 3.21773,-2.19374 1.13223,0.38454 1.58773,1.34035 1.17264,2.4606 -0.32835,0.88614 -1.88673,2.31687 -3.18939,2.92817 -1.10476,0.51843 -1.20251,0.52811 -1.32127,0.13083 z m -48.28326,-1.64664 c -0.63537,-0.97186 -1.01521,-2.0759 -1.10933,-3.22439 -0.0721,-0.87974 -0.0364,-1.12832 0.23407,-1.62805 0.68037,-1.25732 2.37444,-1.51029 3.43883,-0.51355 0.41453,0.38819 0.44545,0.48999 0.44545,1.46654 0,0.94135 -0.0591,1.15659 -0.57417,2.09061 -0.3158,0.57267 -0.89882,1.35773 -1.29561,1.74455 l -0.72146,0.70332 z m -7.75609,-1.32288 c 0.26977,-1.58495 1.25626,-3.37161 2.26642,-4.10485 0.74359,-0.53972 1.83686,-0.63853 2.57015,-0.23231 0.90391,0.50078 1.26564,1.61897 0.79028,2.44299 -0.62473,1.08293 -2.70558,2.06688 -5.06228,2.39376 l -0.66532,0.0923 z m 66.61432,0.2988 c -1.29135,-0.28181 -1.89235,-0.89682 -1.89135,-1.9354 0.002,-1.75937 1.84587,-2.34136 4.16964,-1.31589 1.00259,0.44244 2.94338,1.90641 2.94338,2.22026 0,0.38956 -2.83418,1.16694 -4.1622,1.14165 -0.33298,-0.006 -0.80974,-0.0562 -1.05947,-0.11062 z m 8.04063,-1.38249 c -0.17116,-0.76704 -0.0988,-2.48915 0.13908,-3.31243 0.43039,-1.48931 1.25864,-2.27895 2.38908,-2.2777 0.9376,7.9e-4 1.58813,0.36239 1.94148,1.07839 0.49187,0.9968 0.0828,1.99161 -1.32609,3.22461 -0.67572,0.59138 -2.62351,1.71111 -2.97651,1.71111 -0.0398,0 -0.11502,-0.1908 -0.16704,-0.42398 z m 10.49934,-0.31446 c -1.36006,-0.70801 -3.04866,-2.22425 -3.51076,-3.15237 -0.67064,-1.34703 -0.27517,-2.60466 0.992,-3.15453 0.83154,-0.36083 1.38393,-0.35478 2.22256,0.0243 1.38991,0.62827 2.20477,3.04918 1.84274,5.47465 -0.0975,0.6534 -0.23016,1.23538 -0.29475,1.29325 -0.0646,0.058 -0.62787,-0.1605 -1.25179,-0.4853 z m -80.10275,-3.8467 c -1.23158,-0.0484 -1.24323,-0.0848 -0.45576,-1.42818 0.69501,-1.18559 2.12161,-2.57964 3.09002,-3.01952 1.31586,-0.59772 2.633,-0.3373 3.30716,0.65384 0.36252,0.53296 0.39412,1.44897 0.0694,2.01181 -0.68788,1.1924 -3.06672,1.89765 -6.01085,1.78205 z m 86.91438,-0.0858 c -3.55175,-0.70763 -6.35683,-2.67378 -6.35683,-4.45566 0,-1.44386 1.26844,-2.53174 2.9596,-2.53833 2.0724,-0.008 4.01376,2.39226 4.67482,5.78007 0.12924,0.66224 0.23518,1.24986 0.23545,1.30581 5.9e-4,0.13814 -0.51588,0.10678 -1.51304,-0.0918 z m -72.12599,-0.18821 c -1.4076,-0.59355 -1.65686,-2.10485 -0.50954,-3.08932 0.41553,-0.35653 0.56082,-0.39545 1.47594,-0.39522 0.84634,2.6e-4 1.18721,0.0762 2.05088,0.45737 1.16732,0.51513 3.14231,2.08365 2.89183,2.29668 -0.0832,0.0708 -0.62813,0.29845 -1.21082,0.50591 -1.42857,0.50858 -3.76041,0.62005 -4.69829,0.22458 z m 41.3257,-0.008 c -1.28288,-0.30396 -1.88066,-0.85311 -2.00499,-1.84183 -0.0583,-0.46398 5.9e-4,-0.70972 0.26049,-1.0867 1.04708,-1.5187 3.51185,-1.04568 5.75115,1.10372 0.5911,0.56737 1.04992,1.09824 1.01962,1.17974 -0.16774,0.45108 -3.85034,0.92368 -5.02627,0.64507 z m -15.00523,-1.92296 c -0.84834,-0.4872 -1.08963,-1.57581 -0.58787,-2.65227 0.53614,-1.15022 2.93077,-3.31696 3.46336,-3.13375 0.32075,0.11032 0.62758,1.57604 0.6161,2.94312 -0.0126,1.49558 -0.34206,2.34981 -1.09078,2.82769 -0.60579,0.38667 -1.74145,0.39387 -2.40081,0.0152 z M 89.77966,153.5483 c -2.43013,-1.63059 -3.69884,-4.11776 -2.71043,-5.31352 1.30447,-1.57812 3.56892,-1.19424 4.32261,0.73281 0.30637,0.78336 0.25666,3.30868 -0.0856,4.34494 -0.15401,0.46639 -0.35618,0.84731 -0.44926,0.84655 -0.0931,-8e-4 -0.57789,-0.27564 -1.07737,-0.61078 z m 56.76409,0.17125 c -0.50676,-1.44606 -0.61105,-2.31457 -0.39169,-3.26175 0.25011,-1.07995 0.8039,-1.58853 1.72978,-1.58853 0.55268,0 0.7941,0.0805 1.18792,0.39607 0.43416,0.34787 0.49276,0.4758 0.48174,1.05147 -0.0172,0.89574 -0.51224,1.70088 -1.67521,2.72439 -0.9751,0.85817 -1.22497,0.98536 -1.33254,0.67835 z m -72.12151,-0.66244 c -0.97954,-0.13047 -2.88649,-0.66042 -3.68143,-1.02306 l -0.42248,-0.19275 0.80615,-0.79854 c 1.45125,-1.43752 3.18147,-2.48681 4.79604,-2.90847 1.03489,-0.2703 1.6845,-0.27159 2.39697,-0.005 1.15533,0.43272 1.74309,1.21896 1.73209,2.317 -0.0167,1.66862 -1.13325,2.49775 -3.59253,2.66791 -0.58074,0.0402 -1.49641,0.0144 -2.03481,-0.0573 z m 23.26763,-1.61451 c -2.39849,-0.36204 -4.80409,-1.62166 -5.35956,-2.80639 -0.26165,-0.55809 -0.26173,-1.41698 -1.4e-4,-1.97808 0.44596,-0.95676 1.95761,-1.71389 3.02443,-1.51483 1.83571,0.34254 3.89771,2.63032 4.77772,5.30082 0.17477,0.53041 0.31778,1.00355 0.31778,1.05148 0,0.11746 -1.86845,0.0816 -2.76017,-0.0529 z m 31.31837,-0.13348 c -0.61166,-0.16458 -0.87104,-0.39422 -1.20271,-1.06484 -0.26096,-0.52763 -0.27178,-0.66078 -0.0993,-1.22102 0.37031,-1.20295 2.73957,-2.93963 4.56578,-3.34675 l 0.41622,-0.0928 -0.002,1.06617 c -0.006,2.35453 -0.91224,4.17751 -2.31574,4.65284 -0.48947,0.16578 -0.76485,0.16707 -1.36202,0.006 z m 5.71573,-0.0467 c -0.78238,-0.31613 -1.27899,-0.96665 -1.27899,-1.67534 0,-1.19839 1.00353,-1.97904 3.1173,-2.42493 0.96992,-0.20458 3.26802,-0.21205 3.49194,-0.0113 0.0426,0.0383 -0.19974,0.5474 -0.53875,1.13139 -1.3097,2.25618 -3.38653,3.54793 -4.7915,2.9802 z m 39.57878,-2.71368 c -1.62106,-0.39191 -2.34847,-1.13912 -2.22552,-2.28613 0.0823,-0.7685 0.61286,-1.36621 1.42606,-1.6068 1.34776,-0.39872 3.30113,0.71484 4.84322,2.76099 l 0.75855,1.00648 -0.93918,0.15513 c -1.19843,0.19793 -2.97821,0.18426 -3.86313,-0.0297 z m -101.44723,-1.6783 c -0.0381,-0.0571 -0.18794,-0.58551 -0.33298,-1.17404 -0.19053,-0.77303 -0.24082,-1.39443 -0.18115,-2.23859 0.10704,-1.51519 0.43167,-2.31994 1.18017,-2.9261 0.53268,-0.43139 0.68225,-0.48103 1.44953,-0.48103 0.96334,0 1.68434,0.37361 2.0951,1.08567 0.74917,1.29863 -0.55441,3.62001 -2.843,5.06276 -1.19631,0.75415 -1.28389,0.79714 -1.36767,0.67133 z m 6.57073,-0.20575 c -0.0713,-0.16787 -0.30059,-0.67157 -0.50955,-1.11928 -0.97968,-2.09898 -1.0547,-4.78504 -0.17145,-6.1384 1.11036,-1.70136 4.03125,-1.49696 4.94057,0.34572 0.52355,1.06097 0.10968,2.68026 -1.12149,4.38791 -0.61281,0.84996 -2.62688,2.82934 -2.87895,2.82934 -0.0712,0 -0.18784,-0.13739 -0.25913,-0.30529 z m 48.58525,-2.07821 c -0.26445,-0.5647 -0.59129,-1.40418 -0.72632,-1.86549 -0.3125,-1.06759 -0.34187,-3.20278 -0.0562,-4.08544 0.47036,-1.45321 2.2158,-2.29485 3.70322,-1.78566 0.84267,0.28847 1.70471,1.12186 1.84276,1.78149 0.34296,1.63874 -0.7124,3.832 -2.78185,5.78135 -0.70096,0.66027 -1.32542,1.20052 -1.38766,1.20052 -0.0622,0 -0.32952,-0.46204 -0.59397,-1.02677 z m -84.40717,-1.44955 c 0.24772,-2.38814 1.3698,-4.31011 2.75565,-4.72009 0.93122,-0.2755 2.10278,0.18899 2.53472,1.00491 0.3645,0.68855 0.30858,1.30218 -0.18187,1.99539 -0.71476,1.0103 -1.96261,1.80259 -3.76021,2.38749 -1.47837,0.48104 -1.46799,0.48616 -1.34829,-0.6677 z m 41.4861,0.27135 c 0.37397,-2.05392 1.84796,-4.08239 3.23774,-4.45563 1.54288,-0.41437 3.01003,0.90935 2.58309,2.33061 -0.30124,1.00281 -2.18914,2.10112 -4.27578,2.48748 -1.69098,0.31307 -1.66898,0.31824 -1.54505,-0.36246 z m 52.66811,-0.68265 c -1.37854,-0.72489 -2.9916,-2.16294 -3.4791,-3.10167 -0.90257,-1.73796 -0.10604,-3.31855 1.75306,-3.47868 1.33887,-0.11532 2.23319,0.49505 2.87271,1.96065 0.29091,0.66669 0.34696,1.05822 0.35606,2.48713 0.0111,1.65677 -0.12261,2.72541 -0.33661,2.70158 -0.0587,-0.006 -0.58341,-0.26259 -1.16612,-0.56901 z m 26.80966,0.037 c -0.79781,-0.21975 -1.57607,-0.81198 -1.84093,-1.40089 -0.31971,-0.71086 -0.32879,-1.68341 -0.0207,-2.21743 0.82176,-1.42448 3.63287,-2.47975 6.73686,-2.52894 0.86113,-0.0137 1.63511,0.0137 1.71996,0.0606 0.23688,0.13122 -0.75096,2.21538 -1.57138,3.31532 -1.55529,2.08524 -3.53989,3.17999 -5.02379,2.77127 z M 63.44429,142.10009 c -0.93393,-0.24412 -2.18978,-0.77789 -2.72435,-1.15792 -0.29531,-0.20996 -0.28424,-0.23013 0.45405,-0.82765 1.46326,-1.18422 4.05979,-2.08914 5.41612,-1.88759 1.05295,0.15647 1.92449,1.10558 1.92449,2.0958 0,0.67226 -0.53576,1.45399 -1.20682,1.76087 -0.76123,0.34813 -2.56525,0.35581 -3.86349,0.0165 z m 6.34506,-3.73459 c -1.14244,-0.4459 -2.27845,-1.77068 -3.00776,-3.50751 -0.36733,-0.8748 -0.92293,-3.32586 -0.78244,-3.4518 0.1599,-0.14333 3.2631,0.66513 4.28698,1.11684 1.25539,0.55387 2.65396,1.63765 3.08052,2.38716 0.51733,0.90898 0.24692,2.35547 -0.56049,2.99815 -0.76152,0.60614 -2.11114,0.81067 -3.01681,0.45716 z m 43.9041,-0.0335 c -0.671,-0.31778 -0.97929,-0.594 -1.33783,-1.19864 -0.46299,-0.78073 -0.45335,-2.96489 0.0196,-4.44888 0.32824,-1.02985 1.25113,-2.85015 1.52077,-2.99952 0.0739,-0.041 0.6266,0.42765 1.22813,1.04136 1.74911,1.78452 2.91328,4.28201 2.6364,5.65581 -0.1852,0.9189 -0.89679,1.73615 -1.76883,2.0315 -0.61607,0.20865 -1.77212,0.16759 -2.29829,-0.0817 z m -53.90782,-0.54837 c -0.0536,-0.13381 -0.23259,-0.54854 -0.39786,-0.92165 -0.21136,-0.47717 -0.32185,-1.12442 -0.37253,-2.18235 -0.0628,-1.31015 -0.032,-1.58512 0.23846,-2.13323 0.3861,-0.78241 1.05651,-1.17812 1.99598,-1.17812 0.81812,0 1.55603,0.36649 1.88456,0.93595 0.63619,1.10283 -0.0676,2.94016 -1.74043,4.54309 -1.13874,1.09119 -1.46918,1.28358 -1.60818,0.93631 z m -13.21717,-0.25335 c -0.80777,-0.18994 -3.47692,-1.27778 -3.47059,-1.41447 0.002,-0.0373 0.42574,-0.36403 0.94226,-0.72603 2.34572,-1.64402 5.07954,-2.28921 6.28557,-1.4834 0.95256,0.63641 1.25721,1.88478 0.68003,2.78643 -0.61627,0.96272 -2.44041,1.307 -4.43727,0.83747 z m 112.96982,-1.59612 c -0.8984,-0.38371 -1.35005,-0.88927 -1.56595,-1.75283 -0.28083,-1.12328 0.28492,-2.91501 1.42481,-4.51231 0.58941,-0.82594 2.14304,-2.37192 2.38367,-2.37192 0.1995,0 1.27789,2.11955 1.55866,3.06348 0.38198,1.28422 0.45889,2.98936 0.17412,3.86031 -0.54455,1.66554 -2.3078,2.42545 -3.97531,1.71327 z m -40.38747,-2.60526 c -0.32477,-0.10012 -0.79677,-0.36687 -1.04888,-0.59287 -0.39315,-0.35241 -0.46679,-0.53215 -0.51742,-1.26292 -0.076,-1.09786 0.3061,-2.02642 1.3413,-3.25896 0.64733,-0.77076 2.27345,-2.1107 2.65094,-2.18439 0.19022,-0.0371 0.82453,1.83251 0.9744,2.87206 0.17812,1.23538 -0.0325,2.7082 -0.49224,3.44135 -0.58143,0.92735 -1.77964,1.33349 -2.9081,0.98573 z m -37.67663,-1.30022 c -0.41493,-1.85972 0.45606,-4.80908 1.66409,-5.63505 1.55529,-1.06338 3.69002,-0.11276 3.69002,1.64318 0,0.8716 -0.48203,1.60054 -1.73723,2.62704 -0.75655,0.61871 -2.9717,1.7888 -3.38649,1.7888 -0.0747,0 -0.17836,-0.19079 -0.23039,-0.42397 z m 7.81442,-1.24797 c -1.71568,-1.62613 -2.14401,-3.48258 -0.99109,-4.29551 0.43021,-0.30335 1.32517,-0.36268 1.90408,-0.12624 0.78057,0.31879 1.11257,1.37816 0.86584,2.76268 -0.13939,0.78203 -0.78059,2.3813 -0.95477,2.3813 -0.0342,0 -0.40496,-0.32501 -0.82406,-0.72223 z m 40.14552,0.37814 c -0.61465,-0.27986 -0.94834,-0.66212 -1.14266,-1.309 -0.4685,-1.55967 1.87743,-3.09982 5.06556,-3.32564 0.99585,-0.0706 1.1849,-0.0526 1.11784,0.10658 -0.0444,0.10529 -0.18933,0.52726 -0.32211,0.93765 -0.47735,1.47543 -1.79185,3.07918 -2.90238,3.54108 -0.73927,0.30746 -1.22063,0.32054 -1.81625,0.0493 z m 36.03525,-1.72714 c -0.6975,-0.35695 -1.45772,-1.29721 -1.89409,-2.34266 -0.32941,-0.78922 -0.70174,-2.60988 -0.55977,-2.73715 0.15081,-0.1352 2.07304,0.36842 2.99006,0.78336 1.01986,0.4615 2.01597,1.21702 2.33603,1.7718 0.28321,0.49096 0.27709,1.38512 -0.0129,1.88785 -0.26303,0.45596 -1.22148,0.94536 -1.84492,0.94207 -0.23224,-0.002 -0.68872,-0.13861 -1.01439,-0.30527 z m -51.04939,-0.23837 c -0.6603,-0.39019 -1.35236,-1.36651 -1.72477,-2.43317 -0.36037,-1.03218 -0.5676,-2.85488 -0.32461,-2.85488 0.41483,0 2.39219,0.69928 3.05427,1.08013 1.00792,0.57976 1.91799,1.49397 2.1357,2.14538 0.22763,0.681 0.0168,1.32131 -0.61318,1.86234 -0.61096,0.52468 -1.81671,0.62022 -2.52741,0.2002 z m 39.45527,-0.65661 c -0.99622,-0.47748 -1.37831,-1.64602 -0.84212,-2.57548 0.52123,-0.90349 2.24568,-1.68128 4.33219,-1.95388 1.63101,-0.2131 1.70045,-0.17221 1.36809,0.80562 -0.39413,1.15953 -1.0095,2.16451 -1.77404,2.89719 -1.11331,1.06691 -2.0557,1.31947 -3.08412,0.82655 z m -77.86122,-2.61167 c -0.49535,-0.15269 -1.26341,-0.49346 -1.70679,-0.75727 -0.66411,-0.39516 -0.77422,-0.51414 -0.62494,-0.67537 0.54837,-0.5923 2.81963,-1.40112 3.93448,-1.40112 1.11179,0 1.94657,0.6691 1.94657,1.56023 0,1.35416 -1.51925,1.89928 -3.54932,1.27353 z m 54.90314,-0.52182 c -1.46681,-0.80171 -1.16289,-2.6525 0.66658,-4.05921 0.75935,-0.58391 2.57579,-1.50889 2.96304,-1.50889 0.3256,0 0.47702,1.50678 0.25949,2.58214 -0.27536,1.3612 -0.70451,2.22891 -1.36822,2.7664 -0.51045,0.41341 -0.70594,0.48532 -1.31786,0.4849 -0.44536,-2.7e-4 -0.90268,-0.10116 -1.20303,-0.26534 z m -14.28575,-0.92128 c -1.51453,-1.68325 -2.55959,-3.93241 -2.55959,-5.50874 0,-0.77624 0.60956,-1.83324 1.29806,-2.2508 1.24467,-0.75493 3.27515,-0.4371 4.06793,0.63675 1.10386,1.49524 0.67126,4.50167 -1.03447,7.18916 -0.34286,0.54021 -0.66894,0.98283 -0.72461,0.98363 -0.0557,7.9e-4 -0.52697,-0.47172 -1.04732,-1.05 z M 52.69824,123.9912 c -0.96213,-0.2796 -1.49352,-0.57016 -2.39805,-1.31119 -0.95853,-0.78531 -1.97831,-1.96565 -1.85401,-2.14593 0.0457,-0.0662 0.66018,-0.22894 1.36563,-0.36165 3.24335,-0.61012 5.83781,0.27692 5.83781,1.99595 0,1.38442 -1.42707,2.26581 -2.95138,1.82282 z m 114.08677,-0.0819 c -0.69548,-0.38012 -1.36006,-1.26677 -1.70938,-2.28056 -0.34412,-0.9987 -0.58087,-3.15033 -0.34665,-3.15033 0.3208,0 1.88016,0.54066 2.50291,0.8678 1.00785,0.52945 1.89413,1.26402 2.33063,1.93168 0.66586,1.0185 0.31314,2.20553 -0.79954,2.69077 -0.64858,0.28286 -1.3927,0.26053 -1.97797,-0.0593 z M 62.96493,123.75645 c -1.10323,-0.28631 -1.69141,-1.61038 -1.41194,-3.17852 0.1866,-1.04708 0.20135,-1.0877 0.87306,-2.40479 0.29493,-0.57831 0.61064,-1.04797 0.70156,-1.0437 0.25569,0.0119 1.37267,1.28678 1.89029,2.15732 1.23434,2.07595 1.10409,3.76923 -0.33499,4.35492 -0.69338,0.28218 -0.9952,0.30235 -1.71798,0.11477 z m 17.89803,-0.1911 c -0.30738,-0.18697 -0.72548,-0.5075 -0.92912,-0.71227 -0.42464,-0.42701 -1.21777,-1.8123 -1.37082,-2.39425 l -0.1036,-0.39385 1.19522,0.0755 c 1.47886,0.0934 2.72559,0.50185 3.44593,1.12896 0.44663,0.38882 0.5493,0.57722 0.5493,1.00797 0,0.7028 -0.26898,1.19832 -0.77872,1.4346 -0.63021,0.29213 -1.37652,0.23764 -2.00821,-0.14664 z m 5.13289,-1.20572 c -0.67429,-0.26491 -1.70852,-1.34565 -2.19774,-2.29665 -0.70401,-1.36853 -0.69747,-1.38776 0.45718,-1.3428 3.06657,0.11943 4.88906,1.492 4.00829,3.01877 -0.41476,0.71897 -1.35929,0.97748 -2.26773,0.62063 z m 5.2909,-0.19946 c -0.88178,-0.48202 -1.59692,-1.44009 -2.0899,-2.79989 -0.28046,-0.77358 -0.56479,-2.79875 -0.41407,-2.94924 0.15336,-0.15315 2.29222,0.48189 3.20915,0.9528 2.08195,1.06922 3.04081,2.32828 2.68079,3.52017 -0.3906,1.29321 -2.14511,1.95447 -3.38597,1.27616 z m 16.31546,-2.48013 c 0.10625,-2.33982 0.7536,-3.87714 2.00101,-4.75234 0.61882,-0.43416 2.12309,-0.45172 2.75478,-0.0322 1.84242,1.22372 1.33228,3.23299 -1.23829,4.8773 -0.87844,0.56186 -2.36297,1.24315 -3.23433,1.48424 l -0.35935,0.0995 z m -32.98882,-1.91392 c 0.0947,-1.8416 0.35499,-2.86878 1.04868,-4.1399 1.14029,-2.08943 3.21879,-2.63268 4.86076,-1.27044 0.23635,0.19609 0.52581,0.52138 0.64324,0.72289 0.31913,0.54759 0.26854,1.6507 -0.10593,2.30863 -0.44633,0.78425 -1.67804,1.91249 -2.85091,2.61144 -0.89816,0.53524 -3.09606,1.42938 -3.51356,1.42938 -0.11841,0 -0.14266,-0.48948 -0.0822,-1.662 z m -16.16374,0.99726 c -0.4196,-0.16583 -0.93261,-0.68644 -1.12507,-1.14177 -0.20963,-0.49596 -0.20655,-1.83637 0.007,-2.64453 0.23364,-0.88803 1.20267,-2.73964 1.43378,-2.73964 0.31424,0 1.39687,1.22415 1.94789,2.20249 1.00588,1.786 1.06075,3.00016 0.17475,3.86681 -0.43268,0.42322 -0.59977,0.49061 -1.3152,0.53054 -0.45074,0.025 -0.95575,-0.008 -1.12224,-0.0739 z m -8.62711,-0.39257 c -1.32408,-0.75152 -2.7541,-2.87836 -3.16604,-4.70878 -0.45698,-2.03059 -0.45917,-2.10319 -0.0635,-2.10086 1.48586,0.009 4.65917,1.18704 5.9545,2.211 1.76412,1.39453 1.89277,3.28868 0.29744,4.37944 -0.74811,0.51149 -2.30807,0.62463 -3.02239,0.2192 z m 52.8978,-0.0601 c 0,-1.09677 0.82408,-2.87512 1.62409,-3.50477 0.84264,-0.6632 2.07131,-0.5286 2.53657,0.27789 0.44963,0.77941 0.17952,1.61142 -0.72359,2.2289 -1.1401,0.77951 -3.43707,1.44644 -3.43707,0.99798 z m 43.74098,-1.41881 c -1.6069,-0.15356 -3.62279,-1.21182 -3.84928,-2.02073 -0.24083,-0.86013 0.57321,-1.81975 1.5437,-1.81975 0.97273,0 1.71853,0.59503 2.51766,2.00865 0.40555,0.7174 0.6965,1.9438 0.45175,1.90417 -0.0738,-0.0119 -0.37247,-0.0444 -0.66383,-0.0723 z m -40.42519,-3.68991 c -1.05644,-0.37051 -2.77029,-1.51195 -2.54548,-1.69531 0.0342,-0.0279 0.41091,-0.2077 0.83719,-0.39959 0.95523,-0.43002 2.5369,-0.70481 3.30921,-0.57494 0.80103,0.13471 1.44014,0.73348 1.44014,1.34924 0,1.38494 -1.27673,1.93936 -3.04106,1.3206 z m 43.18161,-1.11772 c -0.54557,-0.14105 -1.09003,-0.79587 -1.09097,-1.31209 -8.7e-4,-0.48403 0.41339,-1.08701 0.90259,-1.31378 0.57618,-0.26708 1.85408,-0.26238 2.89103,0.0106 0.90645,0.23866 1.80586,0.68131 1.80586,0.88875 0,0.16718 -0.78159,0.76624 -1.51919,1.16441 -0.47241,0.25502 -2.14439,0.74272 -2.40994,0.70295 -0.0449,-0.007 -0.30566,-0.0701 -0.57938,-0.14089 z m -35.07024,-0.25222 c -0.9588,-0.56562 -1.22103,-1.70598 -0.75841,-3.29809 0.2485,-0.85523 0.93172,-2.14737 1.41368,-2.67358 l 0.31026,-0.33876 0.45553,0.47484 c 1.45477,1.51653 2.20783,3.93169 1.58988,5.09898 -0.49737,0.93957 -2.03095,1.31475 -3.01094,0.73661 z m 19.02039,0.135 c -1.00308,-0.21269 -1.84197,-1.24627 -1.84172,-2.26917 3e-4,-1.33437 1.86321,-3.51473 4.04401,-4.73316 0.61583,-0.34406 1.1422,-0.60372 1.1697,-0.57703 0.0274,0.0267 0.15972,0.52823 0.29379,1.11451 0.71137,3.11062 -0.32754,6.06653 -2.27449,6.47148 -0.66689,0.1387 -0.70675,0.13852 -1.39129,-0.007 z m -82.07432,-0.31083 c -0.70138,-0.42253 -1.43365,-1.56702 -1.71694,-2.68353 -0.23935,-0.94335 -0.32501,-2.97623 -0.12541,-2.97623 0.43849,0 2.31645,0.83438 3.16806,1.40757 1.354,0.91135 2.07165,1.92348 1.97102,2.77985 -0.0837,0.71206 -0.47284,1.22444 -1.17308,1.54451 -0.71614,0.32735 -1.50496,0.30054 -2.12365,-0.0721 z m 31.23932,-2.66947 c -0.61162,-0.3343 -0.9533,-0.9198 -0.9533,-1.63357 0,-1.05472 0.84183,-1.91476 2.55631,-2.61161 0.94184,-0.38281 3.28759,-0.87818 3.45363,-0.72934 0.16373,0.14676 -0.30414,1.86614 -0.72471,2.66331 -0.88991,1.68676 -1.97916,2.57739 -3.15116,2.57654 -0.42326,-2.6e-4 -0.88618,-0.10431 -1.18077,-0.26533 z m 64.1966,-0.0606 c -0.78564,-0.30675 -1.27908,-0.95715 -1.27842,-1.68507 8.8e-4,-1.30437 1.10456,-2.07038 3.34612,-2.32302 1.16782,-0.13162 3.46419,0.06 3.46419,0.28889 0,0.0648 -0.27532,0.50861 -0.61178,0.9862 -0.8207,1.16483 -2.33496,2.42055 -3.25947,2.70293 -0.8613,0.26306 -1.05491,0.26656 -1.66064,0.0301 z m -91.26473,-0.1976 c -1.25513,-0.68611 -1.38002,-2.08434 -0.34991,-3.91759 0.49901,-0.88808 1.98465,-2.47758 2.31569,-2.47758 0.10637,0 0.40461,0.45113 0.66281,1.00252 0.84003,1.79389 0.97291,3.71436 0.32324,4.67197 -0.61687,0.90929 -1.99245,1.24511 -2.95183,0.72068 z m 83.96036,-0.15774 c -0.7171,-0.3919 -0.98859,-1.06677 -0.89889,-2.23442 0.0402,-0.52271 0.21822,-1.31431 0.39567,-1.75912 0.3349,-0.8394 1.28592,-2.24389 1.51941,-2.24389 0.0735,0 0.44713,0.41209 0.83023,0.91578 1.67402,2.20104 1.88546,4.54141 0.48057,5.31972 -0.65219,0.36132 -1.66785,0.36217 -2.32699,0.002 z m -65.42426,-1.48588 c -1.71727,-0.81379 -3.08879,-3.46402 -3.38925,-6.54925 -0.10792,-1.10781 -0.13527,-1.10061 1.911,-0.50277 2.44929,0.71561 4.50519,2.0204 5.33385,3.38517 1.11462,1.83578 -0.2656,3.94762 -2.56796,3.92914 -0.42846,-0.004 -0.97736,-0.11526 -1.28764,-0.26229 z m 43.13503,-1.078 c -0.36684,-0.32883 -0.4424,-0.50846 -0.4423,-1.05147 1.5e-4,-0.82619 0.6261,-2.03948 1.51509,-2.93671 0.74839,-0.75532 0.85078,-0.72483 1.34081,0.39942 0.65617,1.50542 0.5533,3.15343 -0.23141,3.70672 -0.61905,0.4365 -1.62426,0.38216 -2.18219,-0.11796 z m -49.84495,-0.0118 c -0.9295,-0.25819 -1.94213,-1.43545 -2.51715,-2.92643 -0.28341,-0.73483 -0.63103,-2.85236 -0.50276,-3.06255 0.0778,-0.12746 1.96409,0.3997 2.85438,0.79772 2.65131,1.18533 3.77298,2.89956 2.81063,4.29537 -0.53179,0.7713 -1.68611,1.16226 -2.6451,0.89589 z m 54.32149,-0.26374 c -1.02759,-0.381 -1.29253,-1.37722 -0.67466,-2.53688 0.32319,-0.60659 2.12226,-2.35355 2.42374,-2.35355 0.2543,0 0.59688,1.41889 0.59688,2.47212 0,1.32124 -0.35843,2.06207 -1.13919,2.35449 -0.57721,0.2162 -0.76851,0.22632 -1.20677,0.0637 z m 9.74532,-0.074 c -0.81193,-0.39555 -0.9454,-1.54391 -0.27721,-2.38509 0.18141,-0.22837 0.6604,-0.64944 1.06441,-0.93571 0.73191,-0.5186 2.03501,-1.06129 2.19785,-0.9153 0.0472,0.0422 0.0857,0.50987 0.0857,1.0392 0,1.93175 -0.90657,3.40584 -2.08785,3.39493 -0.32314,-0.003 -0.76544,-0.0921 -0.98286,-0.19803 z m 15.68195,-1.41837 c -1.00486,-0.37257 -1.31971,-1.45423 -0.6894,-2.36843 0.62204,-0.9022 3.01747,-2.32097 3.37602,-1.99957 0.0893,0.0801 0.12497,0.60435 0.0861,1.2656 -0.13177,2.23971 -1.36819,3.62316 -2.7727,3.1024 z m -66.56319,-0.77374 c -0.16572,-0.24037 1.10868,-2.56659 1.86528,-3.40479 0.87844,-0.97317 1.78073,-1.570821 2.71023,-1.795172 1.23249,-0.297495 2.52638,0.434192 2.88624,1.632132 0.41938,1.39613 -0.82239,2.62986 -3.33162,3.31 -0.96293,0.261 -3.99734,0.45042 -4.13013,0.25783 z m 62.19342,-0.7354 c -0.53753,-0.37902 -0.69383,-0.67252 -0.86474,-1.62381 -0.15023,-0.83623 0.0447,-2.51628 0.32097,-2.765485 0.37868,-0.341667 2.25555,1.203315 2.83132,2.330645 0.46296,0.9065 0.38017,1.49483 -0.2805,1.99316 -0.5818,0.43883 -1.43796,0.46677 -2.00705,0.0655 z m -41.68844,-0.26431 c -0.71711,-0.39191 -0.9886,-1.06677 -0.89889,-2.23443 0.0402,-0.52271 0.21821,-1.31432 0.39566,-1.759121 0.33789,-0.846875 1.28664,-2.243894 1.52389,-2.243894 0.076,0 0.45189,0.422996 0.83532,0.940001 1.71341,2.310294 1.86761,4.697064 0.34529,5.344604 -0.71744,0.30517 -1.59082,0.28646 -2.20127,-0.0472 z m 17.5734,-2.42399 c -0.62665,-0.35433 -0.95331,-0.93458 -0.95331,-1.693395 0,-0.71179 0.51542,-1.36515 1.31242,-1.663658 0.57966,-0.217108 2.25769,-0.237537 3.22817,-0.03929 0.79822,0.163045 2.72434,0.931478 2.72434,1.086883 0,0.231119 -2.00877,1.61765 -2.93713,2.02733 -1.29146,0.56992 -2.66275,0.68456 -3.37449,0.28214 z m -41.47733,-0.064 c -0.51987,-0.0965 -0.98562,-0.21157 -1.03497,-0.25581 -0.33862,-0.30354 2.07521,-2.812997 3.20102,-3.32784 1.24193,-0.567943 2.12767,-0.555144 2.91962,0.04217 0.87765,0.661982 0.98306,1.834243 0.23649,2.62957 -0.78578,0.8371 -3.35364,1.27707 -5.32216,0.91187 z m 68.90267,-0.0785 c -0.16649,-0.0626 -0.47298,-0.27807 -0.68109,-0.4789 -0.55106,-0.53177 -0.50478,-1.389612 0.13283,-2.461949 0.53258,-0.89568 1.71167,-2.035318 1.9622,-1.896522 0.0857,0.04743 0.30347,0.436132 0.48411,0.863782 0.61986,1.467414 0.40239,3.422059 -0.42392,3.810089 -0.43638,0.20491 -1.15254,0.28435 -1.47413,0.1635 z m -38.7463,-0.96087 c -1.53639,-0.29396 -2.346,-1.266017 -2.346,-2.816724 0,-1.003531 0.32229,-1.988388 1.07966,-3.299306 0.61314,-1.061285 2.37176,-3.121308 2.61227,-3.059981 0.28508,0.07273 1.62634,2.649438 1.91161,3.672484 0.32705,1.172906 0.39027,2.833367 0.13879,3.64515 -0.16382,0.528752 -0.87952,1.363254 -1.37167,1.599367 -0.44759,0.21472 -1.53147,0.35338 -2.02466,0.25901 z m 5.95951,-1.68421 c -1.82174,-1.109654 -1.19034,-3.630505 1.50729,-6.017769 0.69936,-0.618902 1.34409,-1.103611 1.43272,-1.07713 0.23912,0.07144 0.83332,1.709188 1.02779,2.832782 0.32292,1.865596 -0.17849,3.636468 -1.20702,4.26296 -0.75941,0.462574 -2.00059,0.462197 -2.76078,-7.83e-4 z M 81.98499,95.470627 c -0.8906,-0.454011 -1.39874,-0.892287 -2.21216,-1.90805 -0.59007,-0.736863 -1.57165,-2.568307 -1.57165,-2.932417 0,-0.08394 0.66172,-0.109487 1.77839,-0.06856 2.73249,0.10012 4.5083,0.7535 5.46045,2.009094 0.29229,0.385432 0.34429,0.597223 0.29147,1.187044 -0.15463,1.726541 -2.03409,2.585838 -3.7465,1.712909 z m 7.49198,0.09664 c -1.2656,-0.518197 -2.44587,-2.096527 -3.0992,-4.144396 -0.26416,-0.828033 -0.59201,-3.470744 -0.43058,-3.470744 0.44123,0 3.62781,1.092589 4.4379,1.521617 1.95535,1.035598 3.25776,2.541121 3.25259,3.759846 -0.002,0.539845 -0.67186,1.702411 -1.15399,2.003657 -0.98554,0.615796 -2.02904,0.730333 -3.00672,0.33002 z m 2.13298,-6.437045 c -0.32526,-0.180863 -0.71403,-0.535191 -0.86393,-0.787393 -0.77462,-1.303129 0.16292,-3.840013 2.13334,-5.772611 0.41789,-0.409869 0.75981,-0.811028 0.75981,-0.891474 0,-0.08046 0.27621,0.353633 0.61381,0.964608 1.52539,2.76062 1.56596,5.462237 0.0967,6.445507 -0.26165,0.175109 -0.71088,0.287841 -1.2761,0.320226 -0.72056,0.04127 -0.9752,-0.0069 -1.46368,-0.278863 z"
       id="path4655-3"
       inkscape:connector-curvature="0" />
  </g>
</svg>
